<?xml version="1.0" encoding="utf-8"?>
<!-- Generator: Adobe Illustrator 16.0.4, SVG Export Plug-In . SVG Version: 6.00 Build 0)  -->
<!DOCTYPE svg PUBLIC "-//W3C//DTD SVG 1.1//EN" "http://www.w3.org/Graphics/SVG/1.1/DTD/svg11.dtd">
<svg version="1.1" id="Layer_1" xmlns="http://www.w3.org/2000/svg" xmlns:xlink="http://www.w3.org/1999/xlink" x="0px" y="0px"
   width="157.5px" height="157.5px" viewBox="0 0 157.5 157.5" enable-background="new 0 0 157.5 157.5" xml:space="preserve">
<path fill="#71BF44" d="M150.7,136c0,6.3-5.1,11.3-11.3,11.3H23.2c-6.3,0-11.3-5.1-11.3-11.3V19.8c0-6.3,5.1-11.3,11.3-11.3h116.2
  c6.3,0,11.3,5.1,11.3,11.3V136z M42.9,100.3v-9.6c0-4.1-2.3-6.8-6.5-6.8c-2.3,0-4,0.7-5.3,2.7c-0.8-1.8-3.1-2.7-5-2.7
  c-2.1,0-3.3,0.6-4.6,2.2h-0.1v-1.7h-2.8v16h3v-8.9c0-2.7,0.9-4.8,3.9-4.8c1.2,0,2.3,0.4,3,1.5c0.7,1.1,0.7,2.1,0.7,3.3v8.9h3v-8.9
  c0-2.6,0.7-4.8,3.8-4.8c2.9,0,3.8,2.3,3.8,4.8v8.9H42.9z M49,82.5v-3.5h-3v3.5H49z M49,100.3v-16h-3v16H49z M66.8,95h-3.3
  c-0.8,1.8-2.5,2.9-4.5,2.9c-3.2,0-5.2-2.6-5.2-5.7c0-3.1,2-5.6,5.2-5.6c2.1,0,3.6,1.1,4.5,3h3.3c-0.9-3.4-4.4-5.7-7.8-5.7
  c-4.7,0-8.2,3.7-8.2,8.4c0,4.7,3.4,8.4,8.2,8.4C62.6,100.7,65.6,98.4,66.8,95z M82.6,100.3v-9.4c0-1.4-0.2-2.9-1-4.1
  c-1.2-2-3.4-2.9-5.6-2.9c-1.8,0-3.4,0.6-4.5,2.1h-0.1v-7.1h-3v21.3h3v-8.7c0-2.7,1.3-5,4.2-5c3.2,0,4,2.3,4,5v8.7H82.6z M88.7,82.5
  v-3.5h-3v3.5H88.7z M88.7,100.3v-16h-3v16H88.7z M126.8,100.3v-16h-3v2.2h-0.1c-1.2-1.8-3.3-2.7-5.4-2.7c-4.8,0-8.5,3.6-8.5,8.5
  c0,4.8,3.7,8.3,8.5,8.3c2.2,0,4.3-1,5.4-2.9h0.1v2.5H126.8z M123.9,92.3c0,3.1-2.4,5.6-5.6,5.6c-3.1,0-5.4-2.6-5.4-5.6
  c0-3.1,2.3-5.7,5.5-5.7C121.6,86.6,123.9,89.1,123.9,92.3z M144.1,100.3v-9.4c0-1.4-0.2-2.9-1-4.1c-1.2-2-3.4-2.9-5.6-2.9
  c-1.8,0-3.5,0.6-4.7,2.1h-0.1v-1.7h-2.8v16h3v-8.7c0-2.7,1.3-5,4.2-5c3.2,0,4,2.3,4,5v8.7H144.1z M99.5,104.1c-1.3,0-2.3,1-2.3,2.3
  c0,1.3,1,2.3,2.3,2.3c1.3,0,2.3-1,2.3-2.3C101.8,105.2,100.8,104.1,99.5,104.1z M119.7,109h-2.4c-0.4,0.7-1.1,1.3-2,1.3
  c-1.6,0-2.7-1.3-2.7-2.8c0-1.5,1-2.8,2.6-2.8c1,0,1.6,0.5,2.1,1.3h2.4c-0.7-2-2.4-3.3-4.5-3.3c-2.6,0-4.7,2.2-4.7,4.8
  c0,2.7,2.1,4.9,4.7,4.9C117.4,112.3,119,111,119.7,109z M129.6,107.4c0-2.7-2.1-4.8-4.7-4.8c-2.6,0-4.7,2.2-4.7,4.8
  c0,2.6,2.1,4.8,4.7,4.8C127.6,112.3,129.6,110.2,129.6,107.4z M127.5,107.5c0,1.5-1.1,2.8-2.6,2.8c-1.5,0-2.6-1.3-2.6-2.8
  c0-1.5,1.1-2.9,2.6-2.9C126.4,104.6,127.5,106,127.5,107.5z M143.8,112v-5.3c0-0.9-0.1-1.9-0.7-2.7c-0.7-1-1.8-1.4-2.9-1.4
  c-1.2,0-2.2,0.4-2.9,1.4c-0.6-0.9-1.5-1.4-2.6-1.4c-0.9,0-1.8,0.3-2.3,1.1h0v-0.8h-1.9v9h2.1v-4.5c0-1.2,0.1-2.9,1.7-2.9
  c1.3,0,1.8,1.2,1.8,2.3v5h2.1v-4.7c0-0.6,0-1.3,0.3-1.8c0.3-0.5,0.9-0.8,1.5-0.8c1.4,0,1.7,1.2,1.7,2.3v5H143.8z M99.5,112.1
  c-3.1,0-5.6-2.5-5.6-5.6H91c0,4.7,3.8,8.5,8.5,8.5c4.7,0,8.5-3.8,8.5-8.5l0-8.3V84.3h-3v1.8c-1.3-1.5-3.5-2.3-5.5-2.3
  c-3.4,0-6.2,1.7-7.7,4.8C91.3,89.7,91,91,91,92.2c0,4.6,3.9,8.4,8.5,8.4c2.1,0,4.2-0.7,5.5-2.5h0.1l0.1,8.3
  C105.1,109.5,102.6,112.1,99.5,112.1z M105.1,92.3c0,0.7-0.2,1.5-0.5,2.2c-0.9,2.1-2.7,3.4-5.1,3.4c-3.1,0-5.5-2.6-5.5-5.6
  c0-3.1,2.4-5.7,5.5-5.7c0.7,0,1.4,0.2,2.1,0.4C103.9,87.9,105.1,89.9,105.1,92.3z"/>
</svg>